<?xml version="1.0" encoding="UTF-8" standalone="no"?><!DOCTYPE svg PUBLIC "-//W3C//DTD SVG 1.1//EN" "http://www.w3.org/Graphics/SVG/1.1/DTD/svg11.dtd"><svg width="100%" height="100%" viewBox="0 0 333 121" version="1.1" xmlns="http://www.w3.org/2000/svg" xmlns:xlink="http://www.w3.org/1999/xlink" xml:space="preserve" xmlns:serif="http://www.serif.com/" style="fill-rule:evenodd;clip-rule:evenodd;stroke-linejoin:round;stroke-miterlimit:1.41421;"><rect id="Kolor" x="-193.92" y="-179.859" width="2160" height="480" style="fill:none;"/><g id="_1" serif:id="1"><g><path d="M91.591,120.141l-35.65,0l-0.155,-0.01l-0.615,-0.081c-0.879,-0.234 -1.63,-0.727 -2.203,-1.524l-0.114,-0.167l-17.825,-30.873c0,0 -0.81,-1.658 -0.245,-3.031c0.162,-0.395 0.245,-0.534 0.245,-0.534l17.825,-30.874c0,0 0.993,-1.406 2.269,-1.686c0,0 0.321,-0.052 0.321,-0.052c0.319,-0.035 0.497,-0.044 0.497,-0.044l35.65,0l0.155,0.01l0.615,0.081c0.87,0.232 1.63,0.74 2.212,1.537l0.105,0.154l17.825,30.874c0,0 0.791,1.616 0.268,2.972c-0.148,0.386 -0.268,0.593 -0.268,0.593l-17.825,30.873c0,0 -0.962,1.325 -2.133,1.652c-0.043,0.012 -0.061,0.034 -0.787,0.119l-0.167,0.011Zm-32.892,-61.745c-0.366,0.027 -0.737,0.18 -0.963,0.472c-0.033,0.044 -0.061,0.094 -0.092,0.142l-4.997,8.656l-10.059,17.422c-0.208,0.397 -0.187,0.855 0.003,1.235c5.017,8.69 10.034,17.379 15.051,26.069c0.206,0.313 0.52,0.561 0.923,0.612l0.146,0.008l30.105,0c0.421,-0.026 0.82,-0.217 1.071,-0.615l3.727,-6.454l11.33,-19.625c0.208,-0.396 0.187,-0.854 -0.003,-1.235c-5.017,-8.689 -10.034,-17.379 -15.051,-26.068c-0.206,-0.314 -0.519,-0.562 -0.923,-0.612l-0.147,-0.008c-10.04,0 -20.099,-0.608 -30.121,0.001Z" style="fill:#f2c006;fill-rule:nonzero;"/><path d="M38.961,63.335l-23.804,0c-1.229,-0.054 -2.168,-0.578 -2.777,-1.633l-11.877,-20.572c-0.505,-0.987 -0.537,-2.149 0.002,-3.176l11.9,-20.611c0.133,-0.211 0.326,-0.471 0.525,-0.674c0.405,-0.411 1.166,-0.864 2.225,-0.916l23.804,0c1.236,0.054 2.18,0.599 2.777,1.633l11.878,20.572c0.505,0.988 0.536,2.149 -0.003,3.176l-11.899,20.611c-0.183,0.289 -0.342,0.478 -0.397,0.539c-0.141,0.136 -0.138,0.142 -0.154,0.157c-0.588,0.557 -1.39,0.854 -2.2,0.894Zm-2.777,-41.165l-18.249,0c-0.539,0.021 -1.055,0.316 -1.352,0.772l-0.01,0.014c-3.041,5.268 -6.082,10.535 -9.123,15.802c-0.252,0.478 -0.254,1.071 -0.007,1.557l0.008,0.015c3.04,5.267 6.081,10.534 9.122,15.802c0.275,0.435 0.742,0.724 1.252,0.782l0.107,0.004l18.249,0c0.539,-0.021 1.055,-0.316 1.353,-0.772l0.009,-0.015c3.041,-5.267 6.082,-10.534 9.123,-15.801c0.253,-0.48 0.253,-1.073 0.007,-1.557l-0.187,-0.327l-5.718,-9.904c0,0 0.106,0.134 0.002,-0.002l-0.038,-0.06c-1.063,-1.841 -2.126,-3.682 -3.189,-5.524c-0.272,-0.431 -0.742,-0.724 -1.251,-0.782l-0.108,-0.004Z" style="fill:#f2c006;fill-rule:nonzero;"/><path d="M66.819,26.665l-11.903,0c-1.119,-0.034 -2.02,-0.62 -2.558,-1.475l-5.953,-10.311c-0.225,-0.426 -0.353,-0.899 -0.371,-1.382c-0.006,-0.154 -0.002,-0.051 -0.002,-0.116c0.002,-0.185 0.122,-0.977 0.373,-1.453l5.952,-10.31c0.535,-0.855 1.481,-1.415 2.48,-1.473l0.077,-0.004l11.904,0c0.058,0.002 0.117,0.004 0.175,0.006c0.971,0.097 1.858,0.636 2.383,1.47l5.952,10.311c0.226,0.427 0.353,0.9 0.372,1.381c0.03,0.788 -0.08,0.859 -0.18,1.14c-0.053,0.148 -0.118,0.291 -0.192,0.43l-5.952,10.31c-0.545,0.872 -1.52,1.438 -2.557,1.476Zm-2.766,-20.582l-6.372,0c-0.62,0.024 -1.209,0.361 -1.548,0.881l-0.013,0.02c-1.064,1.843 -2.127,3.686 -3.192,5.528c-0.288,0.555 -0.285,1.234 0,1.782l3.198,5.538c0.335,0.526 0.931,0.868 1.554,0.892l6.372,0c0.628,-0.025 1.227,-0.371 1.561,-0.902c1.064,-1.842 2.127,-3.685 3.192,-5.528c0.282,-0.542 0.285,-1.212 0.009,-1.763c0,0 -3.207,-5.557 -3.207,-5.557c-0.333,-0.522 -0.915,-0.857 -1.531,-0.89l-0.023,-0.001Z" style="fill:#f2c006;fill-rule:nonzero;"/></g><g><g><path d="M177.19,63.868c1.514,-0.001 7.586,0.013 7.586,0.013l1.221,0.004l1.224,0.004c0.294,0.005 0.587,0.026 0.878,0.06c2.703,0.291 5.253,1.827 6.932,4.015c1.19,1.52 1.964,3.35 2.092,5.284c0.167,2.526 0.057,5.096 0.061,7.622c0.007,5.215 -0.024,0.116 -0.041,5.316c-0.001,0.06 -0.001,0.06 -0.003,0.119c-0.045,1.409 -0.429,2.791 -1.071,4.053c-1.529,3.147 -4.7,5.57 -8.328,5.759c-0.335,0.018 -0.671,0.02 -1.008,0.019c-0.336,0.006 -0.959,0.005 -1.441,-0.002c-0.811,0.002 -6.46,0.007 -8.102,0.007l0,-0.003c-0.811,-0.001 -1.623,-0.002 -2.434,-0.004c-0.482,0.007 -0.962,0.011 -1.441,0.002c-0.337,0.001 -0.673,-0.001 -1.007,-0.019c-3.629,-0.189 -6.799,-2.612 -8.329,-5.759c-0.642,-1.262 -1.025,-2.644 -1.071,-4.053c-0.001,-0.059 -0.155,-8.173 -0.002,-0.119c-0.018,-5.2 -0.049,-0.101 -0.042,-5.316c0.005,-2.526 -0.106,-5.096 0.062,-7.622c0.128,-1.934 0.901,-3.764 2.091,-5.284c1.68,-2.188 4.23,-3.724 6.932,-4.015c0.291,-0.034 0.584,-0.055 0.878,-0.06l1.224,-0.004l1.221,-0.004l1.918,-0.005l0,-0.008Zm0,26.583c1.639,0.013 8.559,-0.005 10.003,-0.024c1.927,-0.05 3.712,-1.775 3.794,-3.749c0.27,-7.813 0.026,-5.495 0.001,-13.242c-0.041,-1.947 -1.769,-3.734 -3.749,-3.814c-0.639,-0.021 -1.278,-0.017 -1.918,-0.016c-0.821,0 -6.49,0.012 -8.131,0.014l0,-0.012c-0.821,-0.001 -1.642,-0.002 -2.463,-0.002c-0.64,-0.001 -1.279,-0.005 -1.918,0.016c-1.98,0.08 -3.708,1.867 -3.749,3.814c-0.025,7.747 -0.269,5.429 0.002,13.242c0.082,1.974 1.866,3.699 3.793,3.749c1.445,0.019 2.89,0.031 4.335,0.039l0,-0.015Z" style="fill:#231f20;fill-rule:nonzero;"/><path d="M209.219,63.871c2.001,-0.002 4.079,-0.003 5.536,-0.003c2.564,0.001 5.127,0.008 7.691,0.015l1.22,0.004l1.224,0.004c0.294,0.005 0.587,0.026 0.878,0.06c2.703,0.291 5.253,1.827 6.932,4.015c1.19,1.52 1.964,3.35 2.092,5.284c0.104,1.568 0.07,1.712 0.017,3.721c-0.045,1.409 -0.429,2.791 -1.071,4.053c-1.529,3.147 -4.7,5.57 -8.328,5.76c-0.335,0.017 -0.671,0.019 -1.008,0.018c-0.478,0.009 -0.959,0.006 -1.441,-0.001c-4.579,0.008 -9.16,0.007 -13.742,0.005l0,9.329l-6.161,0l0,-32.267l6.161,0l0,0.003Zm19.437,13.473c0.068,-1.974 0.011,-0.812 0.001,-3.906c-0.041,-1.946 -1.768,-3.733 -3.749,-3.813c-0.639,-0.022 -1.278,-0.017 -1.918,-0.017c-4.333,0.003 -8.668,0.011 -12.996,0.014l-0.762,0.001c-0.003,0.759 -0.007,1.518 -0.013,2.277l0,9.205c5.192,0.048 10.424,0.054 15.643,-0.011c1.927,-0.051 3.712,-1.776 3.794,-3.75Z" style="fill:#231f20;fill-rule:nonzero;"/><path d="M295.779,96.135l-23.047,0c-1.053,-0.062 -2.018,-0.965 -2.048,-2.064l0,-2.601c0.056,-8.479 0.091,-16.932 0,-25.378l0.005,-2.224l6.157,-0.002c0,0 0.011,5.942 0.013,10.889l0,0.053l4.254,-4.381l7.849,0l-12.113,12.382l0,0c-0.004,1.435 0.001,4.264 -0.007,5.702l-0.001,0.122l0,1.805l18.938,0l0,5.697Z" style="fill:#231f20;fill-rule:nonzero;"/><path d="M241.248,96.135l-6.332,0l10.477,-29.612c0.598,-1.496 2.091,-2.587 3.721,-2.641c0.853,-0.004 1.705,-0.007 2.553,-0.005c0.76,0.004 1.527,0.095 2.223,0.459c0.888,0.465 1.599,1.254 1.971,2.187l10.418,29.612l-6.331,0l-3.156,-9.337l-12.312,0l-3.232,9.337Zm9.564,-26.52c-0.119,0.001 -0.238,0.001 -0.356,0.001l-4.006,11.542l8.361,0c0,0 -1.567,-4.914 -3.999,-11.543Z" style="fill:#231f20;fill-rule:nonzero;"/><path d="M332.048,63.866c0.005,5.055 -0.132,17.196 -0.149,22.32c-0.001,0.059 -0.001,0.059 -0.003,0.119c-0.045,1.408 -0.429,2.791 -1.071,4.052c-1.529,3.148 -4.7,5.571 -8.328,5.76c-0.335,0.018 -0.671,0.02 -1.008,0.018c-0.478,0.01 -0.959,0.006 -1.441,-0.001c-0.811,0.002 -3.934,0.007 -5.577,0.007l0,-0.003c-0.811,-0.001 -1.622,-0.002 -2.434,-0.004c-0.482,0.007 -0.962,0.011 -1.441,0.001c-0.336,0.002 -0.672,0 -1.007,-0.018c-3.629,-0.189 -6.799,-2.612 -8.329,-5.76c-0.641,-1.261 -1.025,-2.644 -1.07,-4.052c-0.002,-0.06 -0.002,-0.06 -0.003,-0.119c-0.017,-5.124 0.059,-17.265 0.065,-22.32l6.117,0c-0.055,4.14 -0.198,17.845 -0.026,22.812c0.082,1.974 1.867,3.699 3.794,3.749c1.444,0.018 2.889,0.031 4.334,0.039l0,-0.015c1.64,0.012 6.034,-0.006 7.478,-0.024c1.927,-0.05 3.712,-1.775 3.794,-3.749c0.172,-4.967 0.243,-18.672 0.187,-22.812l6.118,0Z" style="fill:#231f20;fill-rule:nonzero;"/></g><g><path d="M132.427,43.107l-0.406,0c-5.227,0 -9.471,-4.244 -9.471,-9.471c0,-5.227 4.244,-9.471 9.471,-9.471c0.286,0 1.544,0.013 1.889,0.012c2.597,-0.011 5.194,-0.012 7.787,-0.012c4.878,0.002 9.76,0.014 14.65,0.016l0.615,0l-0.002,5.67c-7.985,-0.013 -15.99,-0.096 -23.971,0c-1.933,0.044 -3.74,1.795 -3.8,3.785c0.003,-0.106 0,-0.007 0,0c0.032,1.947 1.758,3.756 3.756,3.828l0.002,0l0.248,0.002c1.023,0.004 1.932,0.008 2.773,0.01c1.292,0.003 2.689,0.004 4.047,0.005c1.624,-0.002 7.296,-0.008 7.476,-0.008c5.227,0 9.471,4.244 9.471,9.471c0,5.227 -4.244,9.471 -9.471,9.471c-0.286,0 -1.545,-0.013 -1.889,-0.012c-2.597,0.011 -5.194,0.012 -7.787,0.012c-4.879,-0.002 -9.76,-0.014 -14.65,-0.016l-0.615,0l0.002,-5.67c7.985,0.013 15.989,0.096 23.97,0c1.934,-0.044 3.741,-1.795 3.8,-3.785c-0.002,0.106 0.001,0.007 0.001,0c-0.032,-1.947 -1.758,-3.756 -3.756,-3.828l-0.017,-0.001c-4.589,-0.021 -8.029,-0.023 -12.353,-0.012c-0.437,0.001 -0.831,0.003 -1.168,0.004c-0.048,0 -0.145,-0.001 -0.261,-0.001l-0.3,0.001c-0.014,0 -0.027,0 -0.041,0Z" style="fill:#231f20;fill-rule:nonzero;"/><path d="M182.195,40.29l0.023,0l15.703,16.125l-7.844,0l-12.911,-13.258l-8.176,0l0,13.258l-6.157,0l0,-32.25l6.157,0l0,0.816c0.027,2.393 0.017,4.805 0,7.211l0,5.268l8.117,0l12.97,-13.319l7.844,0l-15.726,16.149Z" style="fill:#231f20;fill-rule:nonzero;"/><path d="M227.403,56.415l-23.033,0c-1.052,-0.062 -2.017,-0.965 -2.046,-2.063l0,-2.6c0.055,-8.474 0.091,-16.921 0,-25.363l0.005,-2.222l6.153,-0.002c0,0 0.011,5.939 0.013,10.883l-0.001,0.052l4.252,-4.378l7.844,0l-12.105,12.375l0,0c-0.005,1.434 0,4.261 -0.007,5.698l-0.001,0.122l0,1.804l18.926,0l0,5.694Z" style="fill:#231f20;fill-rule:nonzero;"/><path d="M236.666,56.415l-6.328,0l10.471,-29.594c0.597,-1.495 2.089,-2.586 3.718,-2.64c0.853,-0.004 1.704,-0.006 2.551,-0.004c0.76,0.004 1.527,0.094 2.222,0.458c0.887,0.465 1.599,1.253 1.97,2.186l10.411,29.594l-6.327,0l-3.154,-9.331l-12.304,0l-3.23,9.331Zm9.558,-26.504c-0.119,0 -0.238,0.001 -0.356,0.001l-4.003,11.535l8.356,0c0,0 -1.567,-4.911 -3.997,-11.536Z" style="fill:#231f20;fill-rule:nonzero;"/><path d="M266.084,56.415l0.02,-32.239c0,0 7.908,-0.011 11.67,-0.011c2.562,0.001 5.124,0.008 7.686,0.015l1.22,0.004l1.223,0.004c0.294,0.006 0.586,0.026 0.877,0.06c2.701,0.291 5.25,1.826 6.928,4.013c1.189,1.519 1.962,3.348 2.09,5.281c0.168,2.524 0.057,2.157 0.062,4.681c0.007,5.212 -0.024,3.048 -0.042,8.245c-0.001,0.059 -0.001,0.059 -0.002,0.119c-0.046,1.408 -0.429,2.789 -1.071,4.05c-1.528,3.146 -4.697,5.567 -8.323,5.756c-0.334,0.018 -0.67,0.02 -1.007,0.018c-0.478,0.01 -0.958,0.006 -1.44,-0.001c-6.26,0.011 -12.524,0.007 -18.79,0.003l-1.101,0.002Zm19.92,-26.514c-4.33,0.004 -8.663,0.012 -12.988,0.015l-0.795,0c-0.128,10.3 -0.105,10.406 0.002,20.802c5.195,0.048 10.43,0.055 15.652,-0.011c1.925,-0.051 3.709,-1.775 3.791,-3.747c0.27,-7.809 0.027,-5.488 0.002,-13.231c-0.042,-1.945 -1.768,-3.731 -3.747,-3.811c-0.639,-0.021 -1.277,-0.017 -1.917,-0.017Z" style="fill:#231f20;fill-rule:nonzero;"/></g></g></g><g id="_2" serif:id="2"></g><g id="_3" serif:id="3"></g></svg>