<svg xmlns="http://www.w3.org/2000/svg" xmlns:serif="http://www.serif.com/" fill-rule="evenodd" stroke-linejoin="round" stroke-miterlimit="1.41421" clip-rule="evenodd" viewBox="0 0 333 121">
  <path fill="none" d="M-193.92-179.859h2160v480h-2160z"/>
  <g fill-rule="nonzero" serif:id="1">
    <g fill="#f2c006">
      <path d="M91.591 120.141h-35.65l-.155-.01-.615-.081c-.879-.234-1.63-.727-2.203-1.524l-.114-.167-17.825-30.873s-.81-1.658-.245-3.031c.162-.395.245-.534.245-.534l17.825-30.874s.993-1.406 2.269-1.686l.321-.052c.319-.035.497-.044.497-.044h35.65l.155.01.615.081c.87.232 1.63.74 2.212 1.537l.105.154 17.825 30.874s.791 1.616.268 2.972c-.148.386-.268.593-.268.593l-17.825 30.873s-.962 1.325-2.133 1.652c-.043.012-.061.034-.787.119l-.167.011zM58.699 58.396c-.366.027-.737.18-.963.472-.033.044-.061.094-.092.142l-4.997 8.656-10.059 17.422c-.208.397-.187.855.003 1.235 5.017 8.69 10.034 17.379 15.051 26.069.206.313.52.561.923.612l.146.008h30.105c.421-.026.82-.217 1.071-.615l3.727-6.454 11.33-19.625c.208-.396.187-.854-.003-1.235-5.017-8.689-10.034-17.379-15.051-26.068-.206-.314-.519-.562-.923-.612l-.147-.008c-10.04 0-20.099-.608-30.121.001zM38.961 63.335H15.157c-1.229-.054-2.168-.578-2.777-1.633L.503 41.13c-.505-.987-.537-2.149.002-3.176l11.9-20.611c.133-.211.326-.471.525-.674.405-.411 1.166-.864 2.225-.916h23.804c1.236.054 2.18.599 2.777 1.633l11.878 20.572c.505.988.536 2.149-.003 3.176L41.712 61.745c-.183.289-.342.478-.397.539-.141.136-.138.142-.154.157-.588.557-1.39.854-2.2.894zM36.184 22.17H17.935c-.539.021-1.055.316-1.352.772l-.01.014c-3.041 5.268-6.082 10.535-9.123 15.802-.252.478-.254 1.071-.007 1.557l.008.015c3.04 5.267 6.081 10.534 9.122 15.802.275.435.742.724 1.252.782l.107.004h18.249c.539-.021 1.055-.316 1.353-.772l.009-.015 9.123-15.801c.253-.48.253-1.073.007-1.557l-.187-.327-5.718-9.904s.106.134.002-.002l-.038-.06c-1.063-1.841-2.126-3.682-3.189-5.524-.272-.431-.742-.724-1.251-.782l-.108-.004zM66.819 26.665H54.916c-1.119-.034-2.02-.62-2.558-1.475l-5.953-10.311c-.225-.426-.353-.899-.371-1.382-.006-.154-.002-.051-.002-.116.002-.185.122-.977.373-1.453l5.952-10.31c.535-.855 1.481-1.415 2.48-1.473l.077-.004h11.904c.058.002.117.004.175.006.971.097 1.858.636 2.383 1.47l5.952 10.311c.226.427.353.9.372 1.381.03.788-.08.859-.18 1.14-.053.148-.118.291-.192.43l-5.952 10.31c-.545.872-1.52 1.438-2.557 1.476zM64.053 6.083h-6.372c-.62.024-1.209.361-1.548.881l-.013.02c-1.064 1.843-2.127 3.686-3.192 5.528-.288.555-.285 1.234 0 1.782l3.198 5.538c.335.526.931.868 1.554.892h6.372c.628-.025 1.227-.371 1.561-.902 1.064-1.842 2.127-3.685 3.192-5.528.282-.542.285-1.212.009-1.763l-3.207-5.557c-.333-.522-.915-.857-1.531-.89l-.023-.001z"/>
    </g>
    <g fill="#ffffff">
      <path d="M177.19 63.868c1.514-.001 7.586.013 7.586.013l1.221.004 1.224.004c.294.005.587.026.878.06 2.703.291 5.253 1.827 6.932 4.015 1.19 1.52 1.964 3.35 2.092 5.284.167 2.526.057 5.096.061 7.622.007 5.215-.024.116-.041 5.316-.001.06-.001.06-.003.119-.045 1.409-.429 2.791-1.071 4.053-1.529 3.147-4.7 5.57-8.328 5.759-.335.018-.671.02-1.008.019-.336.006-.959.005-1.441-.002-.811.002-6.46.007-8.102.007v-.003c-.811-.001-1.623-.002-2.434-.004-.482.007-.962.011-1.441.002-.337.001-.673-.001-1.007-.019-3.629-.189-6.799-2.612-8.329-5.759-.642-1.262-1.025-2.644-1.071-4.053-.001-.059-.155-8.173-.002-.119-.018-5.2-.049-.101-.042-5.316.005-2.526-.106-5.096.062-7.622.128-1.934.901-3.764 2.091-5.284 1.68-2.188 4.23-3.724 6.932-4.015.291-.034.584-.055.878-.06l1.224-.004 1.221-.004 1.918-.005v-.008zm0 26.583c1.639.013 8.559-.005 10.003-.024 1.927-.05 3.712-1.775 3.794-3.749.27-7.813.026-5.495.001-13.242-.041-1.947-1.769-3.734-3.749-3.814-.639-.021-1.278-.017-1.918-.016-.821 0-6.49.012-8.131.014v-.012c-.821-.001-1.642-.002-2.463-.002-.64-.001-1.279-.005-1.918.016-1.98.08-3.708 1.867-3.749 3.814-.025 7.747-.269 5.429.002 13.242.082 1.974 1.866 3.699 3.793 3.749 1.445.019 2.89.031 4.335.039v-.015zM209.219 63.871c2.001-.002 4.079-.003 5.536-.003 2.564.001 5.127.008 7.691.015l1.22.004 1.224.004c.294.005.587.026.878.06 2.703.291 5.253 1.827 6.932 4.015 1.19 1.52 1.964 3.35 2.092 5.284.104 1.568.07 1.712.017 3.721-.045 1.409-.429 2.791-1.071 4.053-1.529 3.147-4.7 5.57-8.328 5.76-.335.017-.671.019-1.008.018-.478.009-.959.006-1.441-.001-4.579.008-9.16.007-13.742.005v9.329h-6.161V63.868h6.161v.003zm19.437 13.473c.068-1.974.011-.812.001-3.906-.041-1.946-1.768-3.733-3.749-3.813-.639-.022-1.278-.017-1.918-.017-4.333.003-8.668.011-12.996.014l-.762.001c-.003.759-.007 1.518-.013 2.277v9.205c5.192.048 10.424.054 15.643-.011 1.927-.051 3.712-1.776 3.794-3.75zM295.779 96.135h-23.047c-1.053-.062-2.018-.965-2.048-2.064V91.47c.056-8.479.091-16.932 0-25.378l.005-2.224 6.157-.002s.011 5.942.013 10.889v.053l4.254-4.381h7.849l-12.113 12.382c-.004 1.435.001 4.264-.007 5.702l-.001.122v1.805h18.938v5.697zM241.248 96.135h-6.332l10.477-29.612c.598-1.496 2.091-2.587 3.721-2.641.853-.004 1.705-.007 2.553-.005.76.004 1.527.095 2.223.459.888.465 1.599 1.254 1.971 2.187l10.418 29.612h-6.331l-3.156-9.337H244.48l-3.232 9.337zm9.564-26.52c-.119.001-.238.001-.356.001l-4.006 11.542h8.361s-1.567-4.914-3.999-11.543zM332.048 63.866c.005 5.055-.132 17.196-.149 22.32-.001.059-.001.059-.003.119-.045 1.408-.429 2.791-1.071 4.052-1.529 3.148-4.7 5.571-8.328 5.76-.335.018-.671.02-1.008.018-.478.01-.959.006-1.441-.001-.811.002-3.934.007-5.577.007v-.003c-.811-.001-1.622-.002-2.434-.004-.482.007-.962.011-1.441.001-.336.002-.672 0-1.007-.018-3.629-.189-6.799-2.612-8.329-5.76-.641-1.261-1.025-2.644-1.07-4.052-.002-.06-.002-.06-.003-.119-.017-5.124.059-17.265.065-22.32h6.117c-.055 4.14-.198 17.845-.026 22.812.082 1.974 1.867 3.699 3.794 3.749 1.444.018 2.889.031 4.334.039v-.015c1.64.012 6.034-.006 7.478-.024 1.927-.05 3.712-1.775 3.794-3.749.172-4.967.243-18.672.187-22.812h6.118z"/>
      <g>
        <path d="M132.427 43.107h-.406c-5.227 0-9.471-4.244-9.471-9.471s4.244-9.471 9.471-9.471c.286 0 1.544.013 1.889.012 2.597-.011 5.194-.012 7.787-.012 4.878.002 9.76.014 14.65.016h.615l-.002 5.67c-7.985-.013-15.99-.096-23.971 0-1.933.044-3.74 1.795-3.8 3.785.003-.106 0-.007 0 0 .032 1.947 1.758 3.756 3.756 3.828h.002l.248.002c1.023.004 1.932.008 2.773.01 1.292.003 2.689.004 4.047.005 1.624-.002 7.296-.008 7.476-.008 5.227 0 9.471 4.244 9.471 9.471s-4.244 9.471-9.471 9.471c-.286 0-1.545-.013-1.889-.012-2.597.011-5.194.012-7.787.012-4.879-.002-9.76-.014-14.65-.016h-.615l.002-5.67c7.985.013 15.989.096 23.97 0 1.934-.044 3.741-1.795 3.8-3.785-.002.106.001.007.001 0-.032-1.947-1.758-3.756-3.756-3.828l-.017-.001c-4.589-.021-8.029-.023-12.353-.012-.437.001-.831.003-1.168.004-.048 0-.145-.001-.261-.001l-.3.001h-.041zM182.195 40.29h.023l15.703 16.125h-7.844l-12.911-13.258h-8.176v13.258h-6.157v-32.25h6.157v.816c.027 2.393.017 4.805 0 7.211v5.268h8.117l12.97-13.319h7.844L182.195 40.29zM227.403 56.415H204.37c-1.052-.062-2.017-.965-2.046-2.063v-2.6c.055-8.474.091-16.921 0-25.363l.005-2.222 6.153-.002s.011 5.939.013 10.883l-.001.052 4.252-4.378h7.844l-12.105 12.375c-.005 1.434 0 4.261-.007 5.698l-.001.122v1.804h18.926v5.694zM236.666 56.415h-6.328l10.471-29.594c.597-1.495 2.089-2.586 3.718-2.64.853-.004 1.704-.006 2.551-.004.76.004 1.527.094 2.222.458.887.465 1.599 1.253 1.97 2.186l10.411 29.594h-6.327l-3.154-9.331h-12.304l-3.23 9.331zm9.558-26.504c-.119 0-.238.001-.356.001l-4.003 11.535h8.356s-1.567-4.911-3.997-11.536zM266.084 56.415l.02-32.239s7.908-.011 11.67-.011c2.562.001 5.124.008 7.686.015l1.22.004 1.223.004c.294.006.586.026.877.06 2.701.291 5.25 1.826 6.928 4.013 1.189 1.519 1.962 3.348 2.09 5.281.168 2.524.057 2.157.062 4.681.007 5.212-.024 3.048-.042 8.245-.001.059-.001.059-.002.119-.046 1.408-.429 2.789-1.071 4.05-1.528 3.146-4.697 5.567-8.323 5.756-.334.018-.67.02-1.007.018-.478.01-.958.006-1.44-.001-6.26.011-12.524.007-18.79.003l-1.101.002zm19.92-26.514c-4.33.004-8.663.012-12.988.015h-.795c-.128 10.3-.105 10.406.002 20.802 5.195.048 10.43.055 15.652-.011 1.925-.051 3.709-1.775 3.791-3.747.27-7.809.027-5.488.002-13.231-.042-1.945-1.768-3.731-3.747-3.811-.639-.021-1.277-.017-1.917-.017z"/>
      </g>
    </g>
  </g>
</svg>