<?xml version="1.0" standalone="no"?>
<!DOCTYPE svg PUBLIC "-//W3C//DTD SVG 20010904//EN"
 "http://www.w3.org/TR/2001/REC-SVG-20010904/DTD/svg10.dtd">
<svg version="1.0" xmlns="http://www.w3.org/2000/svg"
 width="976.000000pt" height="976.000000pt" viewBox="0 0 976.000000 976.000000"
 preserveAspectRatio="xMidYMid meet">
<metadata>
Created by potrace 1.11, written by Peter Selinger 2001-2013
</metadata>
<g transform="translate(0.000000,976.000000) scale(0.100000,-0.100000)"
fill="#000000" stroke="none">
<path d="M4637 9726 c-54 -20 -100 -58 -135 -113 -76 -121 -476 -822 -488
-857 -17 -47 -18 -135 -2 -173 6 -15 53 -100 104 -188 51 -88 158 -275 239
-415 81 -140 158 -270 171 -287 14 -18 46 -45 72 -60 l47 -28 529 -3 c593 -3
591 -3 663 67 25 23 124 184 272 441 128 222 244 425 257 451 27 53 33 148 12
196 -19 44 -487 854 -514 890 -14 18 -46 45 -72 60 l-47 28 -535 2 c-430 2
-542 0 -573 -11z m883 -487 c45 -28 39 -19 191 -283 156 -270 160 -285 108
-381 -69 -129 -242 -421 -262 -444 -44 -48 -67 -51 -362 -51 -302 0 -320 3
-366 57 -14 17 -83 131 -154 254 -169 293 -167 272 -50 474 48 83 109 188 136
235 61 106 66 113 109 139 34 20 47 21 325 21 278 0 291 -1 325 -21z"/>
<path d="M1411 8463 c-67 -24 -117 -83 -212 -248 -431 -746 -543 -941 -624
-1080 -211 -365 -248 -430 -266 -472 -27 -64 -25 -154 5 -218 12 -27 159 -286
326 -575 167 -289 379 -655 471 -815 92 -159 185 -311 208 -337 74 -84 0 -79
1162 -76 l1024 3 47 28 c26 15 58 42 72 60 13 17 174 291 356 607 183 316 390
675 460 796 71 122 144 249 161 284 41 77 50 159 24 226 -15 41 -121 226 -614
1079 -70 121 -183 317 -251 435 -72 124 -141 230 -163 252 -73 71 -25 68
-1141 67 -880 0 -1006 -2 -1045 -16z m1845 -519 c28 -13 49 -41 103 -133 124
-211 668 -1155 686 -1190 11 -23 16 -48 12 -75 -4 -40 -22 -72 -277 -511 -47
-82 -176 -305 -285 -494 -151 -261 -205 -348 -229 -362 -30 -18 -64 -19 -801
-19 -752 0 -771 1 -803 20 -18 11 -44 39 -58 63 -14 23 -185 319 -380 656
-321 557 -354 619 -354 660 0 49 -44 -30 667 1201 62 107 100 162 123 178 l33
22 764 0 c687 0 768 -2 799 -16z"/>
<path d="M4684 5585 c-87 -43 -130 -100 -319 -430 -98 -170 -217 -377 -265
-460 -145 -249 -796 -1377 -911 -1578 -130 -226 -140 -268 -96 -395 11 -32
228 -412 712 -1247 67 -115 263 -455 436 -755 196 -339 328 -559 352 -583 21
-21 62 -50 90 -63 l52 -24 1504 0 1505 0 43 21 c93 45 123 88 417 599 154 267
334 580 401 695 524 904 769 1333 781 1367 19 54 18 133 -2 194 -9 27 -59 121
-109 209 -51 88 -251 435 -445 770 -194 336 -412 714 -485 840 -73 127 -199
345 -280 485 -81 140 -161 270 -178 288 -18 18 -58 46 -91 62 l-59 30 -1502 0
-1501 0 -50 -25z m2284 -544 c484 -7 514 -9 538 -27 15 -10 74 -102 133 -204
59 -102 170 -293 246 -425 76 -132 193 -334 260 -450 103 -177 303 -524 560
-970 41 -71 58 -111 58 -136 0 -27 -28 -83 -118 -240 -496 -856 -607 -1049
-863 -1494 -127 -220 -240 -412 -252 -427 -11 -15 -38 -32 -58 -38 -56 -15
-2436 -13 -2482 3 -41 14 -37 8 -370 587 -129 223 -288 500 -355 615 -251 433
-384 664 -468 811 -62 107 -87 160 -87 184 0 33 58 136 555 995 67 116 245
424 395 685 150 261 283 485 296 497 29 27 73 32 399 43 243 8 546 6 1613 -9z"/>
</g>
</svg>
